<mxfile host="65bd71144e">
    <diagram id="6cpFLJPNccqpOjPIZYuP" name="Page-1">
        <mxGraphModel dx="816" dy="626" grid="1" gridSize="10" guides="1" tooltips="1" connect="1" arrows="1" fold="1" page="1" pageScale="1" pageWidth="850" pageHeight="1100" math="0" shadow="0">
            <root>
                <mxCell id="0"/>
                <mxCell id="1" parent="0"/>
                <mxCell id="2" value="&lt;font style=&quot;font-size: 18px;&quot;&gt;Livres&lt;br&gt;&lt;/font&gt;&lt;br&gt;/addBook POST&lt;br&gt;/books GET&lt;br&gt;/book/:filter GET&lt;br&gt;/book/status/:id PUT&lt;br&gt;/book/:id GET&lt;br&gt;/book/:id PUT&lt;br&gt;/book/:id POST&lt;br&gt;/book/:id DELETE" style="whiteSpace=wrap;html=1;aspect=fixed;" vertex="1" parent="1">
                    <mxGeometry x="120" y="139" width="200" height="200" as="geometry"/>
                </mxCell>
                <mxCell id="3" value="Utilisateurs&lt;br&gt;&lt;br&gt;&lt;font style=&quot;&quot;&gt;&lt;span style=&quot;font-size: 12px;&quot;&gt;/addUser POST&lt;/span&gt;&lt;br&gt;&lt;span style=&quot;font-size: 12px;&quot;&gt;/user/:id GET&lt;br&gt;&lt;/span&gt;&lt;font style=&quot;font-size: 12px;&quot;&gt;/user/:id PUT&lt;br&gt;&lt;/font&gt;&lt;font style=&quot;font-size: 12px;&quot;&gt;/connexion PUT&lt;/font&gt;&lt;br&gt;&lt;/font&gt;" style="whiteSpace=wrap;html=1;aspect=fixed;fontSize=18;" vertex="1" parent="1">
                    <mxGeometry x="450" y="138" width="201" height="201" as="geometry"/>
                </mxCell>
            </root>
        </mxGraphModel>
    </diagram>
</mxfile>